<svg xmlns="http://www.w3.org/2000/svg" fill="none" viewBox="0 0 148 147" height="147" width="148">
<ellipse style="mix-blend-mode:multiply" fill="url(#paint0_linear_6335_13649)" transform="matrix(1 0 0.00431928 0.999991 0.385742 0.0209961)" ry="73.4798" rx="73.2968" cy="73.4798" cx="73.2968"></ellipse>
<ellipse fill="url(#paint1_radial_6335_13649)" transform="matrix(1 0 0.00431928 0.999991 0.385742 0.0209961)" ry="73.4798" rx="73.2968" cy="73.4798" cx="73.2968"></ellipse>
<ellipse fill="white" ry="53.2851" rx="53.02" cy="69.9787" cx="73.8374"></ellipse>
<path fill="black" d="M48.8571 47C45.0893 47 42 50.1086 42 53.9V86.1C42 89.8734 45.0893 93 48.8571 93H99.1429C102.911 93 106 89.8914 106 86.1V53.9C106 50.1086 102.893 47 99.1429 47H48.8571ZM48.8571 51.6H99.1429C100.429 51.6 101.429 52.6062 101.429 53.9V86.1C101.429 87.3937 100.429 88.4 99.1429 88.4H48.8571C47.5714 88.4 46.5714 87.3937 46.5714 86.1V53.9C46.5714 52.5883 47.5536 51.6 48.8571 51.6ZM51.1429 60.8V70H64.8571V60.8H51.1429ZM69.4286 65.4V70H96.8571V65.4H69.4286ZM51.1429 79.2V83.8H55.7143V79.2H51.1429ZM60.2857 79.2V83.8H69.4286V79.2H60.2857ZM74 79.2V83.8H83.1429V79.2H74ZM87.7143 79.2V83.8H96.8571V79.2H87.7143Z"></path>
<path fill="url(#paint2_linear_6335_13649)" d="M48.8571 47C45.0893 47 42 50.1086 42 53.9V86.1C42 89.8734 45.0893 93 48.8571 93H99.1429C102.911 93 106 89.8914 106 86.1V53.9C106 50.1086 102.893 47 99.1429 47H48.8571ZM48.8571 51.6H99.1429C100.429 51.6 101.429 52.6062 101.429 53.9V86.1C101.429 87.3937 100.429 88.4 99.1429 88.4H48.8571C47.5714 88.4 46.5714 87.3937 46.5714 86.1V53.9C46.5714 52.5883 47.5536 51.6 48.8571 51.6ZM51.1429 60.8V70H64.8571V60.8H51.1429ZM69.4286 65.4V70H96.8571V65.4H69.4286ZM51.1429 79.2V83.8H55.7143V79.2H51.1429ZM60.2857 79.2V83.8H69.4286V79.2H60.2857ZM74 79.2V83.8H83.1429V79.2H74ZM87.7143 79.2V83.8H96.8571V79.2H87.7143Z"></path>
<defs>
<linearGradient gradientUnits="userSpaceOnUse" y2="243.853" x2="73.2967" y1="0" x1="73.2967" id="paint0_linear_6335_13649">
<stop stop-color="#F0FAFF"></stop>
<stop stop-opacity="0" stop-color="#F0FAFF" offset="1"></stop>
</linearGradient>
<radialGradient gradientTransform="translate(44.6144 -0.0210097) rotate(52.67) scale(148.4 149.523)" gradientUnits="userSpaceOnUse" r="1" cy="0" cx="0" id="paint1_radial_6335_13649">
<stop stop-color="#1F80F0"></stop>
<stop stop-opacity="0" stop-color="#00E9EA" offset="1"></stop>
</radialGradient>
<linearGradient gradientUnits="userSpaceOnUse" y2="100.796" x2="117.03" y1="55.5" x1="89.5" id="paint2_linear_6335_13649">
<stop stop-color="#1F80F0"></stop>
<stop stop-color="#00E9EA" offset="0.856761"></stop>
</linearGradient>
</defs>
</svg>
