<svg xmlns="http://www.w3.org/2000/svg" fill="none" viewBox="0 0 116 115" height="115" width="116">
<ellipse style="mix-blend-mode:multiply" fill="url(#paint0_linear_6335_13648)" transform="matrix(1 0 0.00431928 0.999991 0.609375 0.105835)" ry="57.3946" rx="57.2517" cy="57.3946" cx="57.2517"></ellipse>
<ellipse fill="url(#paint1_radial_6335_13648)" transform="matrix(1 0 0.00431928 0.999991 0.609375 0.105835)" ry="57.3946" rx="57.2517" cy="57.3946" cx="57.2517"></ellipse>
<ellipse fill="white" ry="41.6207" rx="41.4136" cy="56.6207" cx="57.983"></ellipse>
<path fill="url(#paint2_linear_6335_13648)" d="M58 33C52.1206 33 43.7597 35.0299 39.3275 36.1788C36.7883 36.8368 35 39.1878 35 41.8503V54.4664C35 64.1249 40.6269 72.3083 46.0732 78.0825C51.5196 83.8566 56.9818 87.3444 56.9818 87.3444L58.015 88L59.0332 87.3292C59.0332 87.3292 64.4856 83.7638 69.9268 77.9529C75.3679 72.1419 81 63.9758 81 54.4664V41.8503C81 39.187 79.2126 36.8424 76.68 36.1788H76.6725C72.2405 35.0299 63.8794 33 58 33ZM58 36.903C62.9592 36.903 71.3893 38.837 75.7217 39.9598C76.5855 40.1861 77.1667 40.9463 77.1667 41.8503V54.4664C77.1667 62.3721 72.2571 69.8147 67.1566 75.262C62.5693 80.161 58.8678 82.5737 57.9925 83.167C57.1184 82.5877 53.4259 80.2422 48.8434 75.3839C43.7481 69.9819 38.8333 62.5509 38.8333 54.4664V41.8503C38.8333 40.9377 39.406 40.1839 40.2708 39.9598C44.6017 38.8372 53.0387 36.903 58 36.903ZM58 44.7089C53.7885 44.7089 50.3333 48.2269 50.3333 52.5149C50.3333 54.6066 51.166 56.5057 52.4971 57.912C48.945 59.9095 46.5 63.7207 46.5 68.1268H50.3333C50.3333 63.791 53.7415 60.3209 58 60.3209C62.2585 60.3209 65.6667 63.791 65.6667 68.1268H69.5C69.5 63.7207 67.055 59.9095 63.5029 57.912C64.834 56.5057 65.6667 54.6066 65.6667 52.5149C65.6667 48.2269 62.2115 44.7089 58 44.7089ZM58 48.6119C60.1398 48.6119 61.8333 50.3362 61.8333 52.5149C61.8333 54.6936 60.1398 56.4179 58 56.4179C55.8602 56.4179 54.1667 54.6936 54.1667 52.5149C54.1667 50.3362 55.8602 48.6119 58 48.6119Z"></path>
<defs>
<linearGradient gradientUnits="userSpaceOnUse" y2="190.472" x2="57.2517" y1="0" x1="57.2517" id="paint0_linear_6335_13648">
<stop stop-color="#F0FAFF"></stop>
<stop stop-opacity="0" stop-color="#F0FAFF" offset="1"></stop>
</linearGradient>
<radialGradient gradientTransform="translate(41.8911 -0.105844) rotate(71.2441) scale(116.698 117.402)" gradientUnits="userSpaceOnUse" r="1" cy="0" cx="0" id="paint1_radial_6335_13648">
<stop stop-color="#1F80F0"></stop>
<stop stop-opacity="0" stop-color="#00E9EA" offset="1"></stop>
</radialGradient>
<linearGradient gradientUnits="userSpaceOnUse" y2="73.727" x2="90.7551" y1="45" x1="70" id="paint2_linear_6335_13648">
<stop stop-color="#1F80F0"></stop>
<stop stop-color="#00E9EA" offset="0.856761"></stop>
</linearGradient>
</defs>
</svg>
