<svg xmlns="http://www.w3.org/2000/svg" fill="none" viewBox="0 0 100 100" height="100" width="100">
<ellipse style="mix-blend-mode:multiply" fill="url(#paint0_linear_6335_13650)" transform="matrix(1 0 0.00431928 0.999991 0.193359 0.282959)" ry="49.7177" rx="49.5938" cy="49.7177" cx="49.5938"></ellipse>
<ellipse fill="url(#paint1_radial_6335_13650)" transform="matrix(1 0 0.00431928 0.999991 0.193359 0.282959)" ry="49.7177" rx="49.5938" cy="49.7177" cx="49.5938"></ellipse>
<ellipse fill="white" ry="36.0536" rx="35.8742" cy="47.6176" cx="49.8923"></ellipse>
<path fill="black" d="M55.4411 30L59.357 33.9159L54.1538 39.119L51.3846 36.3498L43.0769 44.6575L40.3077 41.8882L32.0649 50.1418L34.012 52.0889L40.3077 45.8041L43.0769 48.5733L51.3846 40.2656L54.1538 43.0349L61.3149 35.8738L65.2308 39.7897V30H55.4411ZM65.2308 43.8462V66H68V43.8462H65.2308ZM59.6923 46.6154V66H62.4615V46.6154H59.6923ZM54.1538 49.3846V66H56.9231V49.3846H54.1538ZM48.6154 52.1538V66H51.3846V52.1538H48.6154ZM43.0769 54.9231V66H45.8462V54.9231H43.0769ZM37.5385 57.6923V66H40.3077V57.6923H37.5385ZM32 60.4615V66H34.7692V60.4615H32Z"></path>
<path fill="url(#paint2_linear_6335_13650)" d="M55.4411 30L59.357 33.9159L54.1538 39.119L51.3846 36.3498L43.0769 44.6575L40.3077 41.8882L32.0649 50.1418L34.012 52.0889L40.3077 45.8041L43.0769 48.5733L51.3846 40.2656L54.1538 43.0349L61.3149 35.8738L65.2308 39.7897V30H55.4411ZM65.2308 43.8462V66H68V43.8462H65.2308ZM59.6923 46.6154V66H62.4615V46.6154H59.6923ZM54.1538 49.3846V66H56.9231V49.3846H54.1538ZM48.6154 52.1538V66H51.3846V52.1538H48.6154ZM43.0769 54.9231V66H45.8462V54.9231H43.0769ZM37.5385 57.6923V66H40.3077V57.6923H37.5385ZM32 60.4615V66H34.7692V60.4615H32Z"></path>
<defs>
<linearGradient gradientUnits="userSpaceOnUse" y2="164.995" x2="49.5938" y1="0" x1="49.5938" id="paint0_linear_6335_13650">
<stop stop-color="#F0FAFF"></stop>
<stop stop-opacity="0" stop-color="#F0FAFF" offset="1"></stop>
</linearGradient>
<radialGradient gradientTransform="translate(49.8079 -0.282963) rotate(90.2475) scale(119.002 119.401)" gradientUnits="userSpaceOnUse" r="1" cy="0" cx="0" id="paint1_radial_6335_13650">
<stop stop-color="#1F80F0"></stop>
<stop stop-opacity="0" stop-color="#00E9EA" offset="1"></stop>
</radialGradient>
<linearGradient gradientUnits="userSpaceOnUse" y2="64.9568" x2="82.6534" y1="36.6522" x1="58.7187" id="paint2_linear_6335_13650">
<stop stop-color="#1F80F0"></stop>
<stop stop-color="#00E9EA" offset="0.856761"></stop>
</linearGradient>
</defs>
</svg>
