<svg xmlns="http://www.w3.org/2000/svg" fill="none" viewBox="0 0 140 139" height="139" width="140">
<ellipse style="mix-blend-mode:multiply" fill="url(#paint0_linear_6335_13654)" transform="matrix(1 0 0.00431928 0.999991 0.857422 0.456055)" ry="69.2242" rx="69.0518" cy="69.2242" cx="69.0518"></ellipse>
<ellipse fill="url(#paint1_radial_6335_13654)" transform="matrix(1 0 0.00431928 0.999991 0.857422 0.456055)" ry="69.2242" rx="69.0518" cy="69.2242" cx="69.0518"></ellipse>
<ellipse fill="white" ry="50.1991" rx="49.9493" cy="66.3622" cx="70.0558"></ellipse>
<path fill="black" d="M67.4 40L45.9336 50.6002C44.6583 51.2301 44 52.5143 44 53.8302V57.9911H47.6V79.3304H44V82.8869H65.6V84.6652C65.6 87.5906 68.0389 90 71 90H92.6C95.5611 90 98 87.5906 98 84.6652V70.439C98 67.5136 95.5611 65.1042 92.6 65.1042H87.2V57.9911H90.8V56.2128V53.8302C90.8 52.5143 90.1417 51.2301 88.8664 50.6002L67.4 40ZM67.4 43.9733L87.1789 53.7469C87.184 53.7566 87.2 53.7808 87.2 53.8302V54.4346H47.6V53.8302C47.6 53.7808 47.616 53.7497 47.6211 53.7399L67.4 43.9733ZM67.4 47.3215C66.9226 47.3215 66.4648 47.5088 66.1272 47.8423C65.7896 48.1758 65.6 48.6281 65.6 49.0998C65.6 49.5714 65.7896 50.0237 66.1272 50.3572C66.4648 50.6907 66.9226 50.878 67.4 50.878C67.8774 50.878 68.3352 50.6907 68.6728 50.3572C69.0104 50.0237 69.2 49.5714 69.2 49.0998C69.2 48.6281 69.0104 48.1758 68.6728 47.8423C68.3352 47.5088 67.8774 47.3215 67.4 47.3215ZM51.2 57.9911H54.8V79.3304H51.2V57.9911ZM58.4 57.9911H76.4V65.1042H71C68.0389 65.1042 65.6 67.5136 65.6 70.439V79.3304H58.4V57.9911ZM80 57.9911H83.6V65.1042H80V57.9911ZM71 68.6607H92.6C93.6133 68.6607 94.4 69.438 94.4 70.439V84.6652C94.4 85.6662 93.6133 86.4435 92.6 86.4435H71C69.9867 86.4435 69.2 85.6662 69.2 84.6652V70.439C69.2 69.438 69.9867 68.6607 71 68.6607ZM83.6 72.2173V75.7738H90.8V72.2173H83.6ZM72.8 79.3304V82.8869H76.4V79.3304H72.8ZM80 79.3304V82.8869H83.6V79.3304H80ZM87.2 79.3304V82.8869H90.8V79.3304H87.2Z"></path>
<path fill="url(#paint2_linear_6335_13654)" d="M67.4 40L45.9336 50.6002C44.6583 51.2301 44 52.5143 44 53.8302V57.9911H47.6V79.3304H44V82.8869H65.6V84.6652C65.6 87.5906 68.0389 90 71 90H92.6C95.5611 90 98 87.5906 98 84.6652V70.439C98 67.5136 95.5611 65.1042 92.6 65.1042H87.2V57.9911H90.8V56.2128V53.8302C90.8 52.5143 90.1417 51.2301 88.8664 50.6002L67.4 40ZM67.4 43.9733L87.1789 53.7469C87.184 53.7566 87.2 53.7808 87.2 53.8302V54.4346H47.6V53.8302C47.6 53.7808 47.616 53.7497 47.6211 53.7399L67.4 43.9733ZM67.4 47.3215C66.9226 47.3215 66.4648 47.5088 66.1272 47.8423C65.7896 48.1758 65.6 48.6281 65.6 49.0998C65.6 49.5714 65.7896 50.0237 66.1272 50.3572C66.4648 50.6907 66.9226 50.878 67.4 50.878C67.8774 50.878 68.3352 50.6907 68.6728 50.3572C69.0104 50.0237 69.2 49.5714 69.2 49.0998C69.2 48.6281 69.0104 48.1758 68.6728 47.8423C68.3352 47.5088 67.8774 47.3215 67.4 47.3215ZM51.2 57.9911H54.8V79.3304H51.2V57.9911ZM58.4 57.9911H76.4V65.1042H71C68.0389 65.1042 65.6 67.5136 65.6 70.439V79.3304H58.4V57.9911ZM80 57.9911H83.6V65.1042H80V57.9911ZM71 68.6607H92.6C93.6133 68.6607 94.4 69.438 94.4 70.439V84.6652C94.4 85.6662 93.6133 86.4435 92.6 86.4435H71C69.9867 86.4435 69.2 85.6662 69.2 84.6652V70.439C69.2 69.438 69.9867 68.6607 71 68.6607ZM83.6 72.2173V75.7738H90.8V72.2173H83.6ZM72.8 79.3304V82.8869H76.4V79.3304H72.8ZM80 79.3304V82.8869H83.6V79.3304H80ZM87.2 79.3304V82.8869H90.8V79.3304H87.2Z"></path>
<defs>
<linearGradient gradientUnits="userSpaceOnUse" y2="229.73" x2="69.0518" y1="0" x1="69.0518" id="paint0_linear_6335_13654">
<stop stop-color="#F0FAFF"></stop>
<stop stop-opacity="0" stop-color="#F0FAFF" offset="1"></stop>
</linearGradient>
<radialGradient gradientTransform="translate(60.1446 -0.456059) rotate(76.8793) scale(142.727 143.485)" gradientUnits="userSpaceOnUse" r="1" cy="0" cx="0" id="paint1_radial_6335_13654">
<stop stop-color="#1F80F0"></stop>
<stop stop-opacity="0" stop-color="#00E9EA" offset="1"></stop>
</radialGradient>
<linearGradient gradientUnits="userSpaceOnUse" y2="101.459" x2="93.0074" y1="65" x1="66.7143" id="paint2_linear_6335_13654">
<stop stop-color="#1F80F0"></stop>
<stop stop-color="#00E9EA" offset="0.856761"></stop>
</linearGradient>
</defs>
</svg>
