<svg xmlns="http://www.w3.org/2000/svg" fill="none" viewBox="0 0 108 109" height="109" width="108">
<ellipse style="mix-blend-mode:multiply" fill="url(#paint0_linear_6335_13652)" transform="matrix(1 0 0.00431936 0.999991 0.29248 0.756897)" ry="53.7262" rx="53.5924" cy="53.7262" cx="53.5924"></ellipse>
<ellipse fill="url(#paint1_radial_6335_13652)" transform="matrix(1 0 0.00431936 0.999991 0.29248 0.756897)" ry="53.7262" rx="53.5924" cy="53.7262" cx="53.5924"></ellipse>
<ellipse fill="white" ry="38.9605" rx="38.7666" cy="52.3945" cx="53.9976"></ellipse>
<path fill="black" d="M43.2857 34C41.0536 34 39.1557 34.9086 37.9355 36.2922C36.7154 37.6758 36.1429 39.45 36.1429 41.2C36.1429 42.95 36.7154 44.7242 37.9355 46.1078C39.1557 47.4914 41.0536 48.4 43.2857 48.4C45.5179 48.4 47.4158 47.4914 48.6359 46.1078C49.856 44.7242 50.4286 42.95 50.4286 41.2C50.4286 39.45 49.856 37.6758 48.6359 36.2922C47.4158 34.9086 45.5179 34 43.2857 34ZM64.7143 34C62.4821 34 60.5842 34.9086 59.3641 36.2922C58.144 37.6758 57.5714 39.45 57.5714 41.2C57.5714 42.95 58.144 44.7242 59.3641 46.1078C60.5842 47.4914 62.4821 48.4 64.7143 48.4C66.9464 48.4 68.8443 47.4914 70.0645 46.1078C71.2846 44.7242 71.8571 42.95 71.8571 41.2C71.8571 39.45 71.2846 37.6758 70.0645 36.2922C68.8443 34.9086 66.9464 34 64.7143 34ZM43.2857 37.6C44.625 37.6 45.4057 38.0414 45.9713 38.6828C46.5368 39.3242 46.8571 40.25 46.8571 41.2C46.8571 42.15 46.5368 43.0758 45.9713 43.7172C45.4057 44.3586 44.625 44.8 43.2857 44.8C41.9464 44.8 41.1658 44.3586 40.6002 43.7172C40.0346 43.0758 39.7143 42.15 39.7143 41.2C39.7143 40.25 40.0346 39.3242 40.6002 38.6828C41.1658 38.0414 41.9464 37.6 43.2857 37.6ZM64.7143 37.6C66.0536 37.6 66.8343 38.0414 67.3998 38.6828C67.9654 39.3242 68.2857 40.25 68.2857 41.2C68.2857 42.15 67.9654 43.0758 67.3998 43.7172C66.8343 44.3586 66.0536 44.8 64.7143 44.8C63.375 44.8 62.5943 44.3586 62.0287 43.7172C61.4632 43.0758 61.1429 42.15 61.1429 41.2C61.1429 40.25 61.4632 39.3242 62.0287 38.6828C62.5943 38.0414 63.375 37.6 64.7143 37.6ZM54 44.8C51.7679 44.8 49.87 45.7086 48.6498 47.0922C47.4297 48.4758 46.8571 50.25 46.8571 52C46.8571 53.75 47.4297 55.5242 48.6498 56.9078C49.87 58.2914 51.7679 59.2 54 59.2C56.2321 59.2 58.13 58.2914 59.3502 56.9078C60.5703 55.5242 61.1429 53.75 61.1429 52C61.1429 50.25 60.5703 48.4758 59.3502 47.0922C58.13 45.7086 56.2321 44.8 54 44.8ZM39.7143 48.4C37.4821 48.4 35.5842 49.3086 34.3641 50.6922C33.144 52.0758 32.5714 53.85 32.5714 55.6C32.5714 57.35 33.144 59.1242 34.3641 60.5078C34.6154 60.7927 35.1603 60.7381 35.4662 60.9789C31.8718 62.7261 29 65.7241 29 70H32.5714C32.5714 66.0007 35.7468 62.8 39.7143 62.8C43.6818 62.8 46.8571 66.0007 46.8571 70H50.4286C50.4286 65.7241 47.5568 62.7261 43.9623 60.9789C44.2682 60.7381 44.8132 60.7927 45.0645 60.5078C46.2846 59.1242 46.8571 57.35 46.8571 55.6C46.8571 53.85 46.2846 52.0758 45.0645 50.6922C43.8443 49.3086 41.9464 48.4 39.7143 48.4ZM54 48.4C55.3393 48.4 56.12 48.8414 56.6855 49.4828C57.2511 50.1242 57.5714 51.05 57.5714 52C57.5714 52.95 57.2511 53.8758 56.6855 54.5172C56.12 55.1586 55.3393 55.6 54 55.6C52.6607 55.6 51.88 55.1586 51.3145 54.5172C50.7489 53.8758 50.4286 52.95 50.4286 52C50.4286 51.05 50.7489 50.1242 51.3145 49.4828C51.88 48.8414 52.6607 48.4 54 48.4ZM68.2857 48.4C66.0536 48.4 64.1557 49.3086 62.9355 50.6922C61.7154 52.0758 61.1429 53.85 61.1429 55.6C61.1429 57.35 61.7154 59.1242 62.9355 60.5078C63.1868 60.7927 63.7318 60.7381 64.0377 60.9789C60.4432 62.7261 57.5714 65.7241 57.5714 70H61.1429C61.1429 66.0007 64.3182 62.8 68.2857 62.8C72.2532 62.8 75.4286 66.0007 75.4286 70H79C79 65.7241 76.1282 62.7261 72.5338 60.9789C72.8397 60.7381 73.3846 60.7927 73.6359 60.5078C74.856 59.1242 75.4286 57.35 75.4286 55.6C75.4286 53.85 74.856 52.0758 73.6359 50.6922C72.4158 49.3086 70.5179 48.4 68.2857 48.4ZM39.7143 52C41.0536 52 41.8342 52.4414 42.3998 53.0828C42.9654 53.7242 43.2857 54.65 43.2857 55.6C43.2857 56.55 42.9654 57.4758 42.3998 58.1172C41.8342 58.7586 41.0536 59.2 39.7143 59.2C38.375 59.2 37.5943 58.7586 37.0287 58.1172C36.4632 57.4758 36.1429 56.55 36.1429 55.6C36.1429 54.65 36.4632 53.7242 37.0287 53.0828C37.5943 52.4414 38.375 52 39.7143 52ZM68.2857 52C69.625 52 70.4057 52.4414 70.9713 53.0828C71.5368 53.7242 71.8571 54.65 71.8571 55.6C71.8571 56.55 71.5368 57.4758 70.9713 58.1172C70.4057 58.7586 69.625 59.2 68.2857 59.2C66.9464 59.2 66.1657 58.7586 65.6002 58.1172C65.0346 57.4758 64.7143 56.55 64.7143 55.6C64.7143 54.65 65.0346 53.7242 65.6002 53.0828C66.1657 52.4414 66.9464 52 68.2857 52Z"></path>
<path fill="url(#paint2_linear_6335_13652)" d="M43.2857 34C41.0536 34 39.1557 34.9086 37.9355 36.2922C36.7154 37.6758 36.1429 39.45 36.1429 41.2C36.1429 42.95 36.7154 44.7242 37.9355 46.1078C39.1557 47.4914 41.0536 48.4 43.2857 48.4C45.5179 48.4 47.4158 47.4914 48.6359 46.1078C49.856 44.7242 50.4286 42.95 50.4286 41.2C50.4286 39.45 49.856 37.6758 48.6359 36.2922C47.4158 34.9086 45.5179 34 43.2857 34ZM64.7143 34C62.4821 34 60.5842 34.9086 59.3641 36.2922C58.144 37.6758 57.5714 39.45 57.5714 41.2C57.5714 42.95 58.144 44.7242 59.3641 46.1078C60.5842 47.4914 62.4821 48.4 64.7143 48.4C66.9464 48.4 68.8443 47.4914 70.0645 46.1078C71.2846 44.7242 71.8571 42.95 71.8571 41.2C71.8571 39.45 71.2846 37.6758 70.0645 36.2922C68.8443 34.9086 66.9464 34 64.7143 34ZM43.2857 37.6C44.625 37.6 45.4057 38.0414 45.9713 38.6828C46.5368 39.3242 46.8571 40.25 46.8571 41.2C46.8571 42.15 46.5368 43.0758 45.9713 43.7172C45.4057 44.3586 44.625 44.8 43.2857 44.8C41.9464 44.8 41.1658 44.3586 40.6002 43.7172C40.0346 43.0758 39.7143 42.15 39.7143 41.2C39.7143 40.25 40.0346 39.3242 40.6002 38.6828C41.1658 38.0414 41.9464 37.6 43.2857 37.6ZM64.7143 37.6C66.0536 37.6 66.8343 38.0414 67.3998 38.6828C67.9654 39.3242 68.2857 40.25 68.2857 41.2C68.2857 42.15 67.9654 43.0758 67.3998 43.7172C66.8343 44.3586 66.0536 44.8 64.7143 44.8C63.375 44.8 62.5943 44.3586 62.0287 43.7172C61.4632 43.0758 61.1429 42.15 61.1429 41.2C61.1429 40.25 61.4632 39.3242 62.0287 38.6828C62.5943 38.0414 63.375 37.6 64.7143 37.6ZM54 44.8C51.7679 44.8 49.87 45.7086 48.6498 47.0922C47.4297 48.4758 46.8571 50.25 46.8571 52C46.8571 53.75 47.4297 55.5242 48.6498 56.9078C49.87 58.2914 51.7679 59.2 54 59.2C56.2321 59.2 58.13 58.2914 59.3502 56.9078C60.5703 55.5242 61.1429 53.75 61.1429 52C61.1429 50.25 60.5703 48.4758 59.3502 47.0922C58.13 45.7086 56.2321 44.8 54 44.8ZM39.7143 48.4C37.4821 48.4 35.5842 49.3086 34.3641 50.6922C33.144 52.0758 32.5714 53.85 32.5714 55.6C32.5714 57.35 33.144 59.1242 34.3641 60.5078C34.6154 60.7927 35.1603 60.7381 35.4662 60.9789C31.8718 62.7261 29 65.7241 29 70H32.5714C32.5714 66.0007 35.7468 62.8 39.7143 62.8C43.6818 62.8 46.8571 66.0007 46.8571 70H50.4286C50.4286 65.7241 47.5568 62.7261 43.9623 60.9789C44.2682 60.7381 44.8132 60.7927 45.0645 60.5078C46.2846 59.1242 46.8571 57.35 46.8571 55.6C46.8571 53.85 46.2846 52.0758 45.0645 50.6922C43.8443 49.3086 41.9464 48.4 39.7143 48.4ZM54 48.4C55.3393 48.4 56.12 48.8414 56.6855 49.4828C57.2511 50.1242 57.5714 51.05 57.5714 52C57.5714 52.95 57.2511 53.8758 56.6855 54.5172C56.12 55.1586 55.3393 55.6 54 55.6C52.6607 55.6 51.88 55.1586 51.3145 54.5172C50.7489 53.8758 50.4286 52.95 50.4286 52C50.4286 51.05 50.7489 50.1242 51.3145 49.4828C51.88 48.8414 52.6607 48.4 54 48.4ZM68.2857 48.4C66.0536 48.4 64.1557 49.3086 62.9355 50.6922C61.7154 52.0758 61.1429 53.85 61.1429 55.6C61.1429 57.35 61.7154 59.1242 62.9355 60.5078C63.1868 60.7927 63.7318 60.7381 64.0377 60.9789C60.4432 62.7261 57.5714 65.7241 57.5714 70H61.1429C61.1429 66.0007 64.3182 62.8 68.2857 62.8C72.2532 62.8 75.4286 66.0007 75.4286 70H79C79 65.7241 76.1282 62.7261 72.5338 60.9789C72.8397 60.7381 73.3846 60.7927 73.6359 60.5078C74.856 59.1242 75.4286 57.35 75.4286 55.6C75.4286 53.85 74.856 52.0758 73.6359 50.6922C72.4158 49.3086 70.5179 48.4 68.2857 48.4ZM39.7143 52C41.0536 52 41.8342 52.4414 42.3998 53.0828C42.9654 53.7242 43.2857 54.65 43.2857 55.6C43.2857 56.55 42.9654 57.4758 42.3998 58.1172C41.8342 58.7586 41.0536 59.2 39.7143 59.2C38.375 59.2 37.5943 58.7586 37.0287 58.1172C36.4632 57.4758 36.1429 56.55 36.1429 55.6C36.1429 54.65 36.4632 53.7242 37.0287 53.0828C37.5943 52.4414 38.375 52 39.7143 52ZM68.2857 52C69.625 52 70.4057 52.4414 70.9713 53.0828C71.5368 53.7242 71.8571 54.65 71.8571 55.6C71.8571 56.55 71.5368 57.4758 70.9713 58.1172C70.4057 58.7586 69.625 59.2 68.2857 59.2C66.9464 59.2 66.1657 58.7586 65.6002 58.1172C65.0346 57.4758 64.7143 56.55 64.7143 55.6C64.7143 54.65 65.0346 53.7242 65.6002 53.0828C66.1657 52.4414 66.9464 52 68.2857 52Z"></path>
<defs>
<linearGradient gradientUnits="userSpaceOnUse" y2="178.298" x2="53.5924" y1="0" x1="53.5924" id="paint0_linear_6335_13652">
<stop stop-color="#F0FAFF"></stop>
<stop stop-opacity="0" stop-color="#F0FAFF" offset="1"></stop>
</linearGradient>
<radialGradient gradientTransform="translate(49.2065 0.243108) rotate(80.1711) scale(108.595 109.121)" gradientUnits="userSpaceOnUse" r="1" cy="0" cx="0" id="paint1_radial_6335_13652">
<stop stop-color="#1F80F0"></stop>
<stop stop-opacity="0" stop-color="#00E9EA" offset="1"></stop>
</radialGradient>
<linearGradient gradientUnits="userSpaceOnUse" y2="82.0747" x2="67.0666" y1="52" x1="57" id="paint2_linear_6335_13652">
<stop stop-color="#1F80F0"></stop>
<stop stop-color="#00E9EA" offset="0.856761"></stop>
</linearGradient>
</defs>
</svg>
